# xmcd CD database file
#
# Track frame offsets:
#	150
#	28807
#	43527
#	64032
#	85637
#	103770
#	135330
#	156907
#	181970
#
# Disc length: 2738 seconds
#
# Revision: 0
# Processed by: cddbd v1.4PL0 Copyright (c) Steve Scherf et al.
# Submitted via: CDex 1.50beta8
#
DISCID=6c0ab009
DTITLE=Carmen Cavallaro - At The Embers
DYEAR=1900
DGENRE=Jazz
TTITLE0=The Lady Is A Tramp
TTITLE1=Don't Get Around Much Anymore
TTITLE2=Crazy Rhythm
TTITLE3=Just You, Just Me
TTITLE4=Three Little Words
TTITLE5=The Continental
TTITLE6=I Want Be Happy
TTITLE7=Take The "A" Train
TTITLE8=Diga Diga Doo
EXTD=
EXTT0=
EXTT1=
EXTT2=
EXTT3=
EXTT4=
EXTT5=
EXTT6=
EXTT7=
EXTT8=
PLAYORDER=
